<?xml version="1.0" encoding="UTF-8" standalone="no"?>
<svg
   xmlns:dc="http://purl.org/dc/elements/1.1/"
   xmlns:cc="http://creativecommons.org/ns#"
   xmlns:rdf="http://www.w3.org/1999/02/22-rdf-syntax-ns#"
   xmlns:svg="http://www.w3.org/2000/svg"
   xmlns="http://www.w3.org/2000/svg"
   xmlns:sodipodi="http://sodipodi.sourceforge.net/DTD/sodipodi-0.dtd"
   xmlns:inkscape="http://www.inkscape.org/namespaces/inkscape"
   sodipodi:docname="schematic-diagram.svg"
   inkscape:version="1.0 (4035a4fb49, 2020-05-01)"
   version="1.1"
   id="svg2"
   viewBox="-45 0 0 990"
   height="1.8in"
   width="5in">
  <defs
     id="defs4">
    <marker
       inkscape:isstock="true"
       style="overflow:visible"
       id="marker5231"
       refX="0"
       refY="0"
       orient="auto"
       inkscape:stockid="Arrow2Mstart">
      <path
         inkscape:connector-curvature="0"
         transform="scale(0.6,0.6)"
         d="M 8.7185878,4.0337352 -2.2072895,0.01601326 8.7185884,-4.0017078 c -1.7454984,2.3720609 -1.7354408,5.6174519 -6e-7,8.035443 z"
         style="fill:#000000;fill-opacity:1;fill-rule:evenodd;stroke:#000000;stroke-width:0.625;stroke-linejoin:round;stroke-opacity:1"
         id="path4442" />
    </marker>
    <marker
       inkscape:isstock="true"
       style="overflow:visible"
       id="marker4897"
       refX="0"
       refY="0"
       orient="auto"
       inkscape:stockid="Arrow2Lstart">
      <path
         inkscape:connector-curvature="0"
         transform="matrix(1.1,0,0,1.1,1.1,0)"
         d="M 8.7185878,4.0337352 -2.2072895,0.01601326 8.7185884,-4.0017078 c -1.7454984,2.3720609 -1.7354408,5.6174519 -6e-7,8.035443 z"
         style="fill:#000000;fill-opacity:1;fill-rule:evenodd;stroke:#000000;stroke-width:0.625;stroke-linejoin:round;stroke-opacity:1"
         id="path4899" />
    </marker>
    <marker
       inkscape:isstock="true"
       style="overflow:visible"
       id="marker4779"
       refX="0"
       refY="0"
       orient="auto"
       inkscape:stockid="Arrow2Lstart">
      <path
         inkscape:connector-curvature="0"
         transform="matrix(1.1,0,0,1.1,1.1,0)"
         d="M 8.7185878,4.0337352 -2.2072895,0.01601326 8.7185884,-4.0017078 c -1.7454984,2.3720609 -1.7354408,5.6174519 -6e-7,8.035443 z"
         style="fill:#000000;fill-opacity:1;fill-rule:evenodd;stroke:#000000;stroke-width:0.625;stroke-linejoin:round;stroke-opacity:1"
         id="path4781" />
    </marker>
    <marker
       inkscape:isstock="true"
       style="overflow:visible"
       id="marker4674"
       refX="0"
       refY="0"
       orient="auto"
       inkscape:stockid="Arrow2Lstart">
      <path
         inkscape:connector-curvature="0"
         transform="matrix(1.1,0,0,1.1,1.1,0)"
         d="M 8.7185878,4.0337352 -2.2072895,0.01601326 8.7185884,-4.0017078 c -1.7454984,2.3720609 -1.7354408,5.6174519 -6e-7,8.035443 z"
         style="fill:#000000;fill-opacity:1;fill-rule:evenodd;stroke:#000000;stroke-width:0.625;stroke-linejoin:round;stroke-opacity:1"
         id="path4436" />
    </marker>
    <marker
       inkscape:isstock="true"
       style="overflow:visible"
       id="Arrow2Mend"
       refX="0"
       refY="0"
       orient="auto"
       inkscape:stockid="Arrow2Mend">
      <path
         inkscape:connector-curvature="0"
         transform="scale(-0.6,-0.6)"
         d="M 8.7185878,4.0337352 -2.2072895,0.01601326 8.7185884,-4.0017078 c -1.7454984,2.3720609 -1.7354408,5.6174519 -6e-7,8.035443 z"
         style="fill:#da1717;fill-opacity:1;fill-rule:evenodd;stroke:#da1717;stroke-width:0.625;stroke-linejoin:round;stroke-opacity:1"
         id="path4351" />
    </marker>
    <marker
       inkscape:isstock="true"
       style="overflow:visible"
       id="Arrow2Mstart"
       refX="0"
       refY="0"
       orient="auto"
       inkscape:stockid="Arrow2Mstart">
      <path
         inkscape:connector-curvature="0"
         transform="scale(0.6,0.6)"
         d="M 8.7185878,4.0337352 -2.2072895,0.01601326 8.7185884,-4.0017078 c -1.7454984,2.3720609 -1.7354408,5.6174519 -6e-7,8.035443 z"
         style="fill:#da1717;fill-opacity:1;fill-rule:evenodd;stroke:#da1717;stroke-width:0.625;stroke-linejoin:round;stroke-opacity:1"
         id="path4348" />
    </marker>
    <marker
       inkscape:isstock="true"
       style="overflow:visible"
       id="Arrow2Lstart"
       refX="0"
       refY="0"
       orient="auto"
       inkscape:stockid="Arrow2Lstart">
      <path
         inkscape:connector-curvature="0"
         transform="matrix(1.1,0,0,1.1,1.1,0)"
         d="M 8.7185878,4.0337352 -2.2072895,0.01601326 8.7185884,-4.0017078 c -1.7454984,2.3720609 -1.7354408,5.6174519 -6e-7,8.035443 z"
         style="fill:#000000;fill-opacity:1;fill-rule:evenodd;stroke:#000000;stroke-width:0.625;stroke-linejoin:round;stroke-opacity:1"
         id="path4342" />
    </marker>
    <marker
       inkscape:isstock="true"
       style="overflow:visible"
       id="Arrow1Lstart"
       refX="0"
       refY="0"
       orient="auto"
       inkscape:stockid="Arrow1Lstart">
      <path
         inkscape:connector-curvature="0"
         transform="matrix(0.8,0,0,0.8,10,0)"
         style="fill:#000000;fill-opacity:1;fill-rule:evenodd;stroke:#000000;stroke-width:1pt;stroke-opacity:1"
         d="M 0,0 5,-5 -12.5,0 5,5 0,0 Z"
         id="path4324" />
    </marker>
    <inkscape:perspective
       id="perspective4147"
       inkscape:persp3d-origin="514.23351 : -14.100707 : 1"
       inkscape:vp_z="679.06685 : 105.47083 : 1"
       inkscape:vp_y="0 : 201.42642 : 0"
       inkscape:vp_x="325.04276 : 102.55318 : 1"
       sodipodi:type="inkscape:persp3d" />
    <marker
       inkscape:isstock="true"
       style="overflow:visible"
       id="Arrow2Lstart-4"
       refX="0"
       refY="0"
       orient="auto"
       inkscape:stockid="Arrow2Lstart">
      <path
         transform="matrix(1.1,0,0,1.1,1.1,0)"
         d="M 8.7185878,4.0337352 -2.2072895,0.01601326 8.7185884,-4.0017078 c -1.7454984,2.3720609 -1.7354408,5.6174519 -6e-7,8.035443 z"
         style="fill:#000000;fill-opacity:1;fill-rule:evenodd;stroke:#000000;stroke-width:0.625;stroke-linejoin:round;stroke-opacity:1"
         id="path4342-2"
         inkscape:connector-curvature="0" />
    </marker>
    <marker
       inkscape:isstock="true"
       style="overflow:visible"
       id="Arrow2Lstart-8"
       refX="0"
       refY="0"
       orient="auto"
       inkscape:stockid="Arrow2Lstart">
      <path
         transform="matrix(1.1,0,0,1.1,1.1,0)"
         d="M 8.7185878,4.0337352 -2.2072895,0.01601326 8.7185884,-4.0017078 c -1.7454984,2.3720609 -1.7354408,5.6174519 -6e-7,8.035443 z"
         style="fill:#000000;fill-opacity:1;fill-rule:evenodd;stroke:#000000;stroke-width:0.625;stroke-linejoin:round;stroke-opacity:1"
         id="path4342-20"
         inkscape:connector-curvature="0" />
    </marker>
    <marker
       inkscape:isstock="true"
       style="overflow:visible"
       id="Arrow2Mstart-4"
       refX="0"
       refY="0"
       orient="auto"
       inkscape:stockid="Arrow2Mstart">
      <path
         transform="scale(0.6,0.6)"
         d="M 8.7185878,4.0337352 -2.2072895,0.01601326 8.7185884,-4.0017078 c -1.7454984,2.3720609 -1.7354408,5.6174519 -6e-7,8.035443 z"
         style="fill:#da1717;fill-opacity:1;fill-rule:evenodd;stroke:#da1717;stroke-width:0.625;stroke-linejoin:round;stroke-opacity:1"
         id="path4348-5"
         inkscape:connector-curvature="0" />
    </marker>
    <marker
       inkscape:isstock="true"
       style="overflow:visible"
       id="Arrow2Mstart-6"
       refX="0"
       refY="0"
       orient="auto"
       inkscape:stockid="Arrow2Mstart">
      <path
         transform="scale(0.6,0.6)"
         d="M 8.7185878,4.0337352 -2.2072895,0.01601326 8.7185884,-4.0017078 c -1.7454984,2.3720609 -1.7354408,5.6174519 -6e-7,8.035443 z"
         style="fill:#da1717;fill-opacity:1;fill-rule:evenodd;stroke:#da1717;stroke-width:0.625;stroke-linejoin:round;stroke-opacity:1"
         id="path4348-7"
         inkscape:connector-curvature="0" />
    </marker>
    <marker
       inkscape:isstock="true"
       style="overflow:visible"
       id="Arrow2Mend-8"
       refX="0"
       refY="0"
       orient="auto"
       inkscape:stockid="Arrow2Mend">
      <path
         transform="scale(-0.6,-0.6)"
         d="M 8.7185878,4.0337352 -2.2072895,0.01601326 8.7185884,-4.0017078 c -1.7454984,2.3720609 -1.7354408,5.6174519 -6e-7,8.035443 z"
         style="fill:#da1717;fill-opacity:1;fill-rule:evenodd;stroke:#da1717;stroke-width:0.625;stroke-linejoin:round;stroke-opacity:1"
         id="path4351-0"
         inkscape:connector-curvature="0" />
    </marker>
    <marker
       inkscape:isstock="true"
       style="overflow:visible"
       id="Arrow2Mstart-6-3"
       refX="0"
       refY="0"
       orient="auto"
       inkscape:stockid="Arrow2Mstart">
      <path
         transform="scale(0.6,0.6)"
         d="M 8.7185878,4.0337352 -2.2072895,0.01601326 8.7185884,-4.0017078 c -1.7454984,2.3720609 -1.7354408,5.6174519 -6e-7,8.035443 z"
         style="fill:#da1717;fill-opacity:1;fill-rule:evenodd;stroke:#da1717;stroke-width:0.625;stroke-linejoin:round;stroke-opacity:1"
         id="path4348-7-3"
         inkscape:connector-curvature="0" />
    </marker>
    <marker
       inkscape:isstock="true"
       style="overflow:visible"
       id="Arrow2Mend-8-4"
       refX="0"
       refY="0"
       orient="auto"
       inkscape:stockid="Arrow2Mend">
      <path
         transform="scale(-0.6,-0.6)"
         d="M 8.7185878,4.0337352 -2.2072895,0.01601326 8.7185884,-4.0017078 c -1.7454984,2.3720609 -1.7354408,5.6174519 -6e-7,8.035443 z"
         style="fill:#da1717;fill-opacity:1;fill-rule:evenodd;stroke:#da1717;stroke-width:0.625;stroke-linejoin:round;stroke-opacity:1"
         id="path4351-0-6"
         inkscape:connector-curvature="0" />
    </marker>
    <marker
       inkscape:isstock="true"
       style="overflow:visible"
       id="Arrow2Lstart-1"
       refX="0"
       refY="0"
       orient="auto"
       inkscape:stockid="Arrow2Lstart">
      <path
         transform="matrix(1.1,0,0,1.1,1.1,0)"
         d="M 8.7185878,4.0337352 -2.2072895,0.01601326 8.7185884,-4.0017078 c -1.7454984,2.3720609 -1.7354408,5.6174519 -6e-7,8.035443 z"
         style="fill:#000000;fill-opacity:1;fill-rule:evenodd;stroke:#000000;stroke-width:0.625;stroke-linejoin:round;stroke-opacity:1"
         id="path4342-8"
         inkscape:connector-curvature="0" />
    </marker>
    <marker
       inkscape:isstock="true"
       style="overflow:visible"
       id="Arrow2Lstart-1-6"
       refX="0"
       refY="0"
       orient="auto"
       inkscape:stockid="Arrow2Lstart">
      <path
         transform="matrix(1.1,0,0,1.1,1.1,0)"
         d="M 8.7185878,4.0337352 -2.2072895,0.01601326 8.7185884,-4.0017078 c -1.7454984,2.3720609 -1.7354408,5.6174519 -6e-7,8.035443 z"
         style="fill:#000000;fill-opacity:1;fill-rule:evenodd;stroke:#000000;stroke-width:0.625;stroke-linejoin:round;stroke-opacity:1"
         id="path4342-8-2"
         inkscape:connector-curvature="0" />
    </marker>
    <marker
       inkscape:isstock="true"
       style="overflow:visible"
       id="Arrow2Lstart-1-6-3"
       refX="0"
       refY="0"
       orient="auto"
       inkscape:stockid="Arrow2Lstart">
      <path
         transform="matrix(1.1,0,0,1.1,1.1,0)"
         d="M 8.7185878,4.0337352 -2.2072895,0.01601326 8.7185884,-4.0017078 c -1.7454984,2.3720609 -1.7354408,5.6174519 -6e-7,8.035443 z"
         style="fill:#000000;fill-opacity:1;fill-rule:evenodd;stroke:#000000;stroke-width:0.625;stroke-linejoin:round;stroke-opacity:1"
         id="path4342-8-2-7"
         inkscape:connector-curvature="0" />
    </marker>
    <marker
       inkscape:isstock="true"
       style="overflow:visible"
       id="marker5231-1"
       refX="0"
       refY="0"
       orient="auto"
       inkscape:stockid="Arrow2Mstart">
      <path
         transform="scale(0.6,0.6)"
         d="M 8.7185878,4.0337352 -2.2072895,0.01601326 8.7185884,-4.0017078 c -1.7454984,2.3720609 -1.7354408,5.6174519 -6e-7,8.035443 z"
         style="fill:#000000;fill-opacity:1;fill-rule:evenodd;stroke:#000000;stroke-width:0.625;stroke-linejoin:round;stroke-opacity:1"
         id="path4442-9"
         inkscape:connector-curvature="0" />
    </marker>
    <marker
       inkscape:isstock="true"
       style="overflow:visible"
       id="marker5231-1-5"
       refX="0"
       refY="0"
       orient="auto"
       inkscape:stockid="Arrow2Mstart">
      <path
         transform="scale(0.6,0.6)"
         d="M 8.7185878,4.0337352 -2.2072895,0.01601326 8.7185884,-4.0017078 c -1.7454984,2.3720609 -1.7354408,5.6174519 -6e-7,8.035443 z"
         style="fill:#000000;fill-opacity:1;fill-rule:evenodd;stroke:#000000;stroke-width:0.625;stroke-linejoin:round;stroke-opacity:1"
         id="path4442-9-0"
         inkscape:connector-curvature="0" />
    </marker>
    <marker
       inkscape:isstock="true"
       style="overflow:visible"
       id="marker5231-1-5-1"
       refX="0"
       refY="0"
       orient="auto"
       inkscape:stockid="Arrow2Mstart">
      <path
         transform="scale(0.6,0.6)"
         d="M 8.7185878,4.0337352 -2.2072895,0.01601326 8.7185884,-4.0017078 c -1.7454984,2.3720609 -1.7354408,5.6174519 -6e-7,8.035443 z"
         style="fill:#000000;fill-opacity:1;fill-rule:evenodd;stroke:#000000;stroke-width:0.625;stroke-linejoin:round;stroke-opacity:1"
         id="path4442-9-0-2"
         inkscape:connector-curvature="0" />
    </marker>
    <marker
       inkscape:isstock="true"
       style="overflow:visible"
       id="Arrow2Mstart-9"
       refX="0"
       refY="0"
       orient="auto"
       inkscape:stockid="Arrow2Mstart">
      <path
         inkscape:connector-curvature="0"
         transform="scale(0.6,0.6)"
         d="M 8.7185878,4.0337352 -2.2072895,0.01601326 8.7185884,-4.0017078 c -1.7454984,2.3720609 -1.7354408,5.6174519 -6e-7,8.035443 z"
         style="fill:#da1717;fill-opacity:1;fill-rule:evenodd;stroke:#da1717;stroke-width:0.625;stroke-linejoin:round;stroke-opacity:1"
         id="path4348-4" />
    </marker>
    <marker
       inkscape:isstock="true"
       style="overflow:visible"
       id="Arrow2Mend-5"
       refX="0"
       refY="0"
       orient="auto"
       inkscape:stockid="Arrow2Mend">
      <path
         inkscape:connector-curvature="0"
         transform="scale(-0.6,-0.6)"
         d="M 8.7185878,4.0337352 -2.2072895,0.01601326 8.7185884,-4.0017078 c -1.7454984,2.3720609 -1.7354408,5.6174519 -6e-7,8.035443 z"
         style="fill:#da1717;fill-opacity:1;fill-rule:evenodd;stroke:#da1717;stroke-width:0.625;stroke-linejoin:round;stroke-opacity:1"
         id="path4351-3" />
    </marker>
  </defs>
  <sodipodi:namedview
     inkscape:document-rotation="0"
     inkscape:snap-bbox="true"
     inkscape:window-maximized="1"
     inkscape:window-y="-8"
     inkscape:window-x="-8"
     inkscape:window-height="1377"
     inkscape:window-width="3440"
     width="9.5in"
     units="in"
     showgrid="true"
     inkscape:current-layer="layer1"
     inkscape:document-units="px"
     inkscape:cy="103.37267"
     inkscape:cx="184.46581"
     inkscape:zoom="3.31"
     inkscape:pageshadow="2"
     inkscape:pageopacity="0.0"
     borderopacity="1.0"
     bordercolor="#666666"
     pagecolor="#ffffff"
     id="base">
    <inkscape:grid
       spacingy="1"
       spacingx="1"
       originy="0"
       originx="0"
       id="grid4286"
       type="xygrid" />
  </sodipodi:namedview>
  <metadata
     id="metadata7">
    <rdf:RDF>
      <cc:Work
         rdf:about="">
        <dc:format>image/svg+xml</dc:format>
        <dc:type
           rdf:resource="http://purl.org/dc/dcmitype/StillImage" />
        <dc:title />
      </cc:Work>
    </rdf:RDF>
  </metadata>
  <g
     transform="translate(0,-890.3622)"
     id="layer1"
     inkscape:groupmode="layer"
     inkscape:label="Layer 1">
    <g
       id="layer1-7"
       transform="matrix(0.19008978,0,0,0.19008978,2.404511,846.84412)">
      <path
         style="fill:#aa0000"
         inkscape:connector-curvature="0"
         id="path3118"
         d="m 237.48,1048.2 c -3.5268,-0.5513 -3.7946,-3.6921 -5.3878,-5.4596 -4.4736,-1.3869 -5.7135,-3.6212 -6.4937,-11.702 -0.28766,-2.9795 -0.74054,-3.8086 -2.2516,-4.1219 -9.2027,-1.7813 -7.3647,-7.9024 -5.7775,-15.104 1.2197,-5.5343 -2.8881,-10.634 -3.983,-15.495 -1.1005,-4.8887 0.641,-9.8688 1.1155,-14.112 1.6285,-14.562 -4.4751,-45.463 -9.1579,-55.816 -2.9982,-6.6286 -5.6562,-13.3 -7.8281,-24.406 -2.8291,-14.466 -2.5464,-33.474 -2.786,-43.444 -0.15503,-6.3302 1.8642,-13.536 -0.95542,-19.167 -6.0015,-11.984 -10.312,-23.428 -11.841,-35.522 -1.3621,-10.775 -3.5556,-21.566 -6.1175,-31.944 -3.6048,-14.603 -9.1251,-31.163 -15.103,-46 -4.7564,-11.804 -7.1288,-26.176 -9.1117,-26.322 -5.0807,13.782 -8.9892,29.012 -13.585,42.548 -4.8248,14.209 -8.4777,29.151 -11.214,41.53 -2.8074,12.701 -1.7667,14.568 -4.2274,28.367 -2.2092,12.388 -10.012,22.822 -10.05,34.208 -0.0559,16.718 4.4973,32.819 1.9904,49.695 -3.4189,23.015 -11.222,45.78 -13.823,67.897 -0.91226,7.7576 -0.81367,11.333 1.2479,21.176 1.6039,7.6576 -4.9707,14.942 -2.6309,29.424 1.5486,9.5855 -4.7872,9.6394 -11.136,11.718 -0.94223,0.468 -3.9348,6.2813 -4.6828,9.0968 -0.69505,2.616 -2.5449,4.7376 -4.1399,4.7482 -1.5495,0.011 -2.1488,0.4573 -3.0122,2.2462 -1.2705,2.6328 -2.8859,3.3839 -8.4183,3.9146 -5.8898,0.565 -7.5293,0.3267 -8.7912,-1.2774 -0.91109,-1.1583 -0.85253,-1.0133 -2.6816,-0.2163 -5.6385,2.4567 -14.566,-3.346 -14.304,-9.6128 0.19162,-4.5944 4.6284,-7.5469 8.084,-10.113 3.3595,-2.4947 7.9097,-4.6822 10.57,-7.9434 2.2534,-2.7626 5.6428,-5.2584 6.9252,-9.021 0.74412,-2.1833 2.4428,-4.8211 4.8646,-7.4403 1.7259,-1.8666 1.7484,-1.9519 1.8901,-7.1556 0.10359,-3.8024 0.39531,-5.7625 1.0494,-7.0507 1.9601,-3.8608 1.5085,-15.071 0.8089,-24.027 -2.4375,-31.202 -10.255,-58.981 -8.7921,-89.421 0.68738,-14.302 2.703,-26.697 6.2857,-40.912 1.2093,-4.7981 1.9694,-7.1864 1.4616,-16.611 -0.34807,-6.4595 1.587,-12.744 1.3123,-19.053 -0.68154,-15.65 -4.3044,-31.701 -5.0899,-47.502 -0.05048,-15.729 -1.6677,-32.909 -0.06259,-49.212 1.5509,-15.753 4.0429,-32.648 6.1643,-55.455 1.0051,-10.806 4.313,-19.869 5.7036,-30.59 0.96537,-7.4424 1.2863,-11.754 3.0302,-19.288 1.5778,-6.8158 2.0124,-8.54 3.2081,-14.928 1.5308,-8.1784 6.4962,-17.053 6.6032,-27.631 0.12444,-12.299 -2.3427,-30.425 -8.1696,-44.797 -0.76409,8.4185 -1.1697,16.047 -5.4056,30.037 -0.44033,1.4543 -0.60273,5.7254 -0.31128,9.5742 0.69076,9.1218 1.0341,17.856 -1.4966,25.881 -1.9223,6.0959 -2.9235,12.407 -4.8854,18.585 -3.6642,11.539 -9.7223,22.911 -14.648,34.711 -2.7207,6.5185 -4.5612,12.647 -6.8741,19.466 -1.8809,5.5451 -4.7648,11.415 -6.3211,16.808 -0.68538,2.3749 -0.76689,3.5064 -0.34805,5.3667 1.6599,7.3724 2.888,14.724 2.1004,22.292 -0.48006,4.6129 -2.8308,8.8891 -2.2868,13.377 1.1457,9.4524 1.2955,20.368 0.13039,23.4 -0.83442,2.1715 -2.8905,4.323 -4.7329,3.3456 -1.3822,-0.73326 -2.2563,-2.9992 -1.9825,-5.1119 0.41819,-3.2269 -0.58815,-8.1551 -0.53474,-11.5 0.02884,-1.8083 -1.4504,-6.5313 -2.2792,-6.1886 0.41994,15.577 -1.6504,29.826 -4.5499,33.15 -1.0575,1.2123 -3.8071,1.153 -4.9471,-0.10669 -0.93136,-1.0292 -0.07372,-5.0893 0.09742,-8.1989 0.42568,-7.7348 1.0581,-13.371 -0.51958,-20.113 -0.05692,2.4579 -1.3004,9.6101 -1.9137,12.009 -1.46,5.7109 -2.3573,9.8937 -2.7513,12.825 -0.46858,3.4862 -0.95325,6.4116 -2.7835,7.6734 -4.3479,2.9977 -6.2619,-2.3244 -6.0457,-4.8897 0.15012,-1.7382 0.60572,-5.5788 1.0634,-8.527 0.62084,-3.9993 0.76777,-7.984 0.73283,-12.011 -0.98707,3.5774 -1.9369,7.2611 -2.4398,10.863 -0.77674,5.5626 -2.481,8.6088 -5.1363,8.3041 -3.5954,-0.41255 -3.701,-4.4115 -3.4093,-6.3889 1.2463,-8.4484 1.6759,-17.044 3.178,-25.851 0.53804,-0.87057 -0.73119,-0.48103 -2.6291,0.8069 -2.0081,1.3627 -3.7491,1.6063 -5.3516,0.74869 -1.3554,-0.72541 -1.2571,-1.3213 0.77389,-4.6894 1.281,-2.1243 1.6275,-3.8294 2.1091,-6.1333 1.0911,-5.2199 3.0926,-11.502 5.3607,-15.857 3.8604,-7.4118 12.819,-12.997 14.066,-21.429 0.73094,-4.9448 0.88658,-9.7552 2.0079,-14.484 2.9254,-12.339 5.9973,-23.551 7.6518,-36.007 1.9821,-14.922 3.2876,-30.736 5.355,-45.004 2.0046,-13.834 14.291,-28.557 13.537,-41.911 -0.76408,-13.532 -2.5739,-32.583 1.2283,-43.666 0.57169,-1.5716 0.66169,-8.5063 -0.70094,-15.112 -1.5148,-7.3431 -1.4987,-19.469 0.03588,-27.055 1.2423,-7.3912 2.6914,-15.569 5.8548,-21.21 3.1625,-5.4976 9.3413,-7.4739 15.333,-10.269 9.4832,-4.5234 23.051,-7.9649 31.689,-13.021 7.0574,-4.3079 12.739,-5.3718 18.422,-9.2 0.79812,-0.53765 4.5205,-3.6661 5.6451,-5.8163 1.0536,-2.0144 1.0973,-2.6827 1.0072,-15.395 -0.10311,-14.556 -0.13018,-14.969 -1.2722,-19.422 -0.67029,-2.4815 -0.79321,-4.947 -0.8026,-7.4853 -2.7978,3.6365 -7.4286,2.6176 -7.6666,-1.0187 0,-0.5603 -0.20726,-1.4061 -0.46057,-1.8796 -0.85589,-2.6652 -0.99176,-5.1637 -1.4064,-8.0164 -0.52947,-3.5368 -0.51209,-4.7611 0.11102,-7.823 0.78491,-3.857 1.4953,-4.8535 3.274,-4.5924 l 1.3207,0.19384 c -1.4421,-6.4553 -2.2969,-13.385 -2.6106,-18.938 -0.16652,-3.082 -0.41161,-5.7798 -0.54464,-5.995 0.17962,-1.0211 1.0294,-2.4015 0.19843,-2.5815 -0.40955,-0.0887 -0.0152,-0.9719 1.0621,-2.3322 0.92573,-1.1688 0.95331,-1.423 1.0886,-2.7233 0.59837,-0.76334 1.4057,-0.86042 0.57884,-1.8826 0.95986,-0.0611 2.3554,0.47154 0.4553,-1.6648 0.0705,-0.351 0.87618,-0.31068 1.3326,-0.38369 -1.0126,-1.9524 -0.30184,-3.6309 0.50392,-4.6888 1.6598,-2.1791 5.1047,-4.848 7.7468,-5.2876 1.0759,-0.17238 2.6343,-0.96301 3.5525,-1.8023 0.8997,-0.82237 1.7127,-1.2647 1.8066,-0.98291 0.16443,0.4933 1.2188,-0.004 5.7576,-2.7166 1.9264,-1.1512 2.4722,-1.2168 9.4556,-1.1364 8.9649,0.10327 14.41,0.69623 17.057,1.8575 2.446,1.0731 2.5576,0.37297 1.7244,-0.63087 1.3306,-0.3944 3.0769,0.67155 4.4742,2.0568 4.0938,3.803 8.725,2.3731 9.3214,4.2961 -0.13441,1.3853 -3.0493,2.8602 1.0286,2.5668 2.3177,-0.16673 1.6876,1.7292 3.0171,2.1639 -1.152,3.1604 1.8615,-0.30777 5.0754,1.0211 -1.1545,0.64231 -4.9988,1.5858 -2.786,4.2167 0.84344,1.0028 0.43065,2.9898 -0.20039,4.2654 -0.66932,1.353 1.0148,4.0058 4.1392,2.4785 -1.0061,2.0266 -1.7934,2.3117 -1.4421,6.2894 0.0242,4.4626 -2.0719,20.811 -2.4366,24.523 3.4436,1.4707 2.1675,5.676 2.6664,9.4662 0.13363,0.98389 -0.082,3.1689 -0.47917,4.8556 -0.88327,3.1124 -0.77409,6.4664 -1.8277,9.5001 -0.54897,1.0258 -2.3134,1.6738 -3.8098,1.3992 -0.73786,-0.13539 -1.1133,0.61673 -2.039,4.0852 -0.68724,2.5748 -1.7938,5.1863 -2.8062,6.6226 l -1.6715,2.3714 0.30548,10.244 c 0.16801,5.6342 0.44607,11.164 0.6179,12.289 0.44331,2.901 2.4462,5.7445 6.0834,8.0994 11.83,7.6591 26.956,10.98 40.399,18.554 9.0412,5.0938 21.863,7.9088 24.676,17.192 4.4983,14.845 5.4382,29.985 2.9501,45.274 -1.753,10.772 -0.59303,20.955 0.0376,30.991 0.79436,12.641 -3.5142,25.027 -0.30317,36.033 2.595,8.8946 5.3352,17.758 8.1857,26.578 1.3865,4.2898 2.5071,15.854 3.2699,27.089 0.81707,12.035 0.95402,24.969 3.6231,36.52 2.7092,11.725 5.6697,27.504 7.3889,38.04 1.1507,7.0516 1.3165,8.0618 10.129,13.721 5.5878,3.5884 7.1746,5.5666 8.7567,9.3718 1.6915,4.0681 4.5737,7.8574 5.9819,11.737 0.74497,2.0526 2.1156,4.7505 3.0615,5.9897 1.9585,2.5658 2.166,3.9444 0.71107,4.7231 -1.7404,0.93142 -5.2308,-0.50191 -8.2065,-2.9147 -3.0721,-2.4909 -5.1885,-6.9763 -7.6698,-9.3448 -0.71082,0 -0.58274,15.578 0.14253,17.338 0.68921,1.6718 0.91418,22.679 0.26795,25.022 -1.0275,3.7248 -4.7596,5.2055 -6.5055,2.5812 -1.0063,-1.5125 -1.0601,-1.8266 -1.5702,-9.1631 -0.24432,-3.5139 -0.76045,-8.1321 -1.147,-10.263 -0.38653,-2.1306 -0.6107,-4.9723 -0.49819,-6.3147 0.13419,-1.601 0.0222,-2.3281 -0.32546,-2.1132 -0.68757,4.084 0.0338,7.2627 0.0849,11.791 0.0173,1.5323 -0.0909,10.594 -0.0854,16.076 0.005,5.1531 -0.53852,6.9238 -2.3105,7.5242 -2.7251,0.92348 -5.1488,-0.8426 -5.6139,-4.0908 -0.16791,-1.1726 -0.43614,-5.007 -0.59605,-8.5208 -0.47776,-10.498 -0.81995,-11.266 -1.032,-1.0222 -0.0677,3.2728 0.42125,8.7338 -1.0502,9.8757 -1.7269,1.3401 -4.173,0.78278 -5.3364,-1.3634 -1.1903,-2.1959 -1.1146,-5.0124 -1.2603,-7.0928 -0.41259,-5.8928 -1.4412,-12.495 -1.1125,-18.083 0.28897,-4.9134 0.70998,-6.8252 0.11105,-6.975 -0.71194,-0.178 -1.3733,6.265 -1.4742,14.362 -0.0757,6.076 -0.1922,6.9012 -1.0642,7.5389 -1.2706,0.92906 -3.577,0.91653 -4.518,-0.0245 -1.2598,-1.2598 -2.0472,-8.6655 -1.95,-18.303 0.0746,-7.3908 -1.2398,-14.836 -2.5241,-21.766 -1.4812,-7.992 1.4919,-14.892 2.0502,-22.661 0.37941,-5.2798 -2.899,-10.258 -4.8294,-15.751 -2.7283,-7.7639 -2.892,-16.9 -6.6474,-23.767 -11.174,-20.431 -18.46,-50.304 -20.274,-63.284 -0.24334,-1.7416 -0.59552,-12.949 0.36338,-17.681 0.75011,-3.702 0.59035,-6.1589 -0.008,-8.8119 -2.0209,-8.9576 -3.8964,-17.603 -3.4509,-25.764 -5.4109,13.854 -6.6251,28.432 -6.5799,42.197 0.0318,9.7019 2.6751,20.509 2.4979,28.111 -0.18185,7.801 2.1414,15.353 2.9213,22.233 1.0114,8.9229 3.2776,16.019 4.8255,25.044 4.0323,23.51 6.4221,45.93 10.492,71.3 1.404,8.7528 1.9575,47.343 0.68093,58 -1.6935,14.138 -6.9412,29.179 -5.3541,43.199 1.3008,11.492 1.5049,23.964 4.1923,37.567 3.0681,15.53 8.4158,30.518 7.4415,46.256 -1.4717,23.771 -2.2249,46.186 -2.9326,72.066 -0.18153,6.6391 -0.71333,19.549 0.87266,24.022 1.8289,5.1587 3.4732,10.932 3.2666,15.801 -0.17067,4.02183 0.14519,5.71033 1.6506,7.58363 1.7445,2.1708 3.5605,5.8746 3.7409,6.9111 0.4803,2.7593 4.1835,7.2427 6.0282,9.1867 4.0628,4.2816 11.425,10.191 14.161,14.476 1.6355,2.5616 2.0267,4.6278 1.2463,5.6055 -3.1165,3.9041 -7.6727,4.3636 -12.163,6.4654 -2.5552,1.1959 -4.0385,1.3125 -6.1479,0.4387 -1.2342,-0.5111 -1.7669,-0.4697 -3.1497,0.2454 -6.016,1.2364 -6.7627,1.4254 -10.814,0.7922 z" />
    </g>
    <rect
       y="903.35236"
       x="85.613159"
       height="100.73573"
       width="88.989456"
       id="rect4191"
       style="opacity:1;fill:#ffffff;fill-opacity:1;stroke:#000000;stroke-width:1.04151571;stroke-linecap:square;stroke-linejoin:miter;stroke-miterlimit:4;stroke-dasharray:none;stroke-opacity:1" />
    <path
       inkscape:connector-curvature="0"
       id="path4318"
       d="M 77.419558,952.23928 59.23678,952.38566"
       style="fill:none;fill-rule:evenodd;stroke:#000000;stroke-width:1.0629921;stroke-linecap:butt;stroke-linejoin:miter;stroke-miterlimit:3;stroke-dasharray:none;stroke-opacity:1;marker-start:url(#marker5231)" />
    <text
       id="text4896"
       y="948.26764"
       x="113.57832"
       style="font-style:normal;font-weight:normal;line-height:0%;font-family:sans-serif;letter-spacing:0px;word-spacing:0px;fill:#000000;fill-opacity:1;stroke:none;stroke-width:1px;stroke-linecap:butt;stroke-linejoin:miter;stroke-opacity:1"
       xml:space="preserve"><tspan
         style="font-size:10.7537px;line-height:1.25"
         y="948.26764"
         x="113.57832"
         id="tspan4898"
         sodipodi:role="line">Symptoms</tspan></text>
    <text
       id="text4896-0"
       y="916.27716"
       x="89.835449"
       style="font-style:normal;font-weight:normal;line-height:0%;font-family:sans-serif;letter-spacing:0px;word-spacing:0px;fill:#000000;fill-opacity:1;stroke:none;stroke-width:1px;stroke-linecap:butt;stroke-linejoin:miter;stroke-opacity:1"
       xml:space="preserve"><tspan
         style="font-size:10.7537px;line-height:1.25"
         y="916.27716"
         x="89.835449"
         id="tspan4898-9"
         sodipodi:role="line">Pathogen</tspan></text>
    <text
       id="text4896-0-5"
       y="985.53412"
       x="89.457489"
       style="font-style:normal;font-weight:normal;line-height:0%;font-family:sans-serif;letter-spacing:0px;word-spacing:0px;fill:#000000;fill-opacity:1;stroke:none;stroke-width:1px;stroke-linecap:butt;stroke-linejoin:miter;stroke-opacity:1"
       xml:space="preserve"><tspan
         style="font-size:10.7537px;line-height:1.25"
         y="985.53412"
         x="89.457489"
         id="tspan4898-9-4"
         sodipodi:role="line">Immune </tspan><tspan
         id="tspan5555"
         style="font-size:10.7537px;line-height:1.25"
         y="998.97626"
         x="89.457489"
         sodipodi:role="line">Response</tspan></text>
    <path
       inkscape:transform-center-y="-5.1597893"
       inkscape:transform-center-x="4.1405188"
       inkscape:connector-curvature="0"
       id="path4318-2"
       d="M 134.33487,937.23085 116.26952,919.88473"
       style="fill:none;fill-rule:evenodd;stroke:#da1717;stroke-width:0.92615867;stroke-linecap:butt;stroke-linejoin:miter;stroke-miterlimit:3;stroke-dasharray:none;stroke-opacity:1;marker-start:url(#Arrow2Mstart);marker-end:url(#Arrow2Mend)" />
    <path
       inkscape:connector-curvature="0"
       id="path4318-2-2-6"
       d="m 94.849498,918.40031 0.215534,53.54805"
       style="fill:none;fill-rule:evenodd;stroke:#da1717;stroke-width:0.99897146;stroke-linecap:butt;stroke-linejoin:miter;stroke-miterlimit:3;stroke-dasharray:none;stroke-opacity:1;marker-start:url(#Arrow2Mstart-6-3);marker-end:url(#Arrow2Mend-8-4)" />
    <text
       id="text4896-0-5-4"
       y="942.09369"
       x="202.04495"
       style="font-style:normal;font-weight:normal;line-height:0%;font-family:sans-serif;letter-spacing:0px;word-spacing:0px;fill:#000000;fill-opacity:1;stroke:none;stroke-width:1px;stroke-linecap:butt;stroke-linejoin:miter;stroke-opacity:1"
       xml:space="preserve"><tspan
         id="tspan5555-8"
         style="font-style:normal;font-variant:normal;font-weight:bold;font-stretch:normal;font-size:10.7537px;line-height:1.25;font-family:sans-serif;-inkscape-font-specification:'sans-serif Bold'"
         y="942.09369"
         x="202.04495"
         sodipodi:role="line">i) Host Infectiousness</tspan><tspan
         id="tspan8049"
         style="font-style:normal;font-variant:normal;font-weight:bold;font-stretch:normal;font-size:10.7537px;line-height:1.25;font-family:sans-serif;-inkscape-font-specification:'sans-serif Bold'"
         y="955.53583"
         x="202.04495"
         sodipodi:role="line"> </tspan><tspan
         id="tspan8055"
         style="font-style:normal;font-variant:normal;font-weight:bold;font-stretch:normal;font-size:10.7537px;line-height:1.25;font-family:sans-serif;-inkscape-font-specification:'sans-serif Bold'"
         y="968.97797"
         x="202.04495"
         sodipodi:role="line">ii) Host Behavior</tspan></text>
    <text
       id="text8614"
       y="948.94696"
       x="351.26379"
       style="font-style:normal;font-weight:normal;line-height:0%;font-family:sans-serif;letter-spacing:0px;word-spacing:0px;fill:#000000;fill-opacity:1;stroke:none;stroke-width:1px;stroke-linecap:butt;stroke-linejoin:miter;stroke-opacity:1"
       xml:space="preserve"><tspan
         style="font-size:15px;line-height:1.25"
         y="948.94696"
         x="351.26379"
         id="tspan8616"
         sodipodi:role="line">Transmission</tspan><tspan
         style="font-size:15px;line-height:1.25"
         id="tspan8618"
         y="967.69696"
         x="351.26379"
         sodipodi:role="line">Pontential</tspan></text>
    <g
       style="fill:#008000"
       id="layer1-7-0"
       transform="matrix(0.05343168,0,0,0.05343168,363.78865,967.08594)">
      <path
         style="fill:#008000"
         inkscape:connector-curvature="0"
         id="path3118-9"
         d="m 237.48,1048.2 c -3.5268,-0.5513 -3.7946,-3.6921 -5.3878,-5.4596 -4.4736,-1.3869 -5.7135,-3.6212 -6.4937,-11.702 -0.28766,-2.9795 -0.74054,-3.8086 -2.2516,-4.1219 -9.2027,-1.7813 -7.3647,-7.9024 -5.7775,-15.104 1.2197,-5.5343 -2.8881,-10.634 -3.983,-15.495 -1.1005,-4.8887 0.641,-9.8688 1.1155,-14.112 1.6285,-14.562 -4.4751,-45.463 -9.1579,-55.816 -2.9982,-6.6286 -5.6562,-13.3 -7.8281,-24.406 -2.8291,-14.466 -2.5464,-33.474 -2.786,-43.444 -0.15503,-6.3302 1.8642,-13.536 -0.95542,-19.167 -6.0015,-11.984 -10.312,-23.428 -11.841,-35.522 -1.3621,-10.775 -3.5556,-21.566 -6.1175,-31.944 -3.6048,-14.603 -9.1251,-31.163 -15.103,-46 -4.7564,-11.804 -7.1288,-26.176 -9.1117,-26.322 -5.0807,13.782 -8.9892,29.012 -13.585,42.548 -4.8248,14.209 -8.4777,29.151 -11.214,41.53 -2.8074,12.701 -1.7667,14.568 -4.2274,28.367 -2.2092,12.388 -10.012,22.822 -10.05,34.208 -0.0559,16.718 4.4973,32.819 1.9904,49.695 -3.4189,23.015 -11.222,45.78 -13.823,67.897 -0.91226,7.7576 -0.81367,11.333 1.2479,21.176 1.6039,7.6576 -4.9707,14.942 -2.6309,29.424 1.5486,9.5855 -4.7872,9.6394 -11.136,11.718 -0.94223,0.468 -3.9348,6.2813 -4.6828,9.0968 -0.69505,2.616 -2.5449,4.7376 -4.1399,4.7482 -1.5495,0.011 -2.1488,0.4573 -3.0122,2.2462 -1.2705,2.6328 -2.8859,3.3839 -8.4183,3.9146 -5.8898,0.565 -7.5293,0.3267 -8.7912,-1.2774 -0.91109,-1.1583 -0.85253,-1.0133 -2.6816,-0.2163 -5.6385,2.4567 -14.566,-3.346 -14.304,-9.6128 0.19162,-4.5944 4.6284,-7.5469 8.084,-10.113 3.3595,-2.4947 7.9097,-4.6822 10.57,-7.9434 2.2534,-2.7626 5.6428,-5.2584 6.9252,-9.021 0.74412,-2.1833 2.4428,-4.8211 4.8646,-7.4403 1.7259,-1.8666 1.7484,-1.9519 1.8901,-7.1556 0.10359,-3.8024 0.39531,-5.7625 1.0494,-7.0507 1.9601,-3.8608 1.5085,-15.071 0.8089,-24.027 -2.4375,-31.202 -10.255,-58.981 -8.7921,-89.421 0.68738,-14.302 2.703,-26.697 6.2857,-40.912 1.2093,-4.7981 1.9694,-7.1864 1.4616,-16.611 -0.34807,-6.4595 1.587,-12.744 1.3123,-19.053 -0.68154,-15.65 -4.3044,-31.701 -5.0899,-47.502 -0.05048,-15.729 -1.6677,-32.909 -0.06259,-49.212 1.5509,-15.753 4.0429,-32.648 6.1643,-55.455 1.0051,-10.806 4.313,-19.869 5.7036,-30.59 0.96537,-7.4424 1.2863,-11.754 3.0302,-19.288 1.5778,-6.8158 2.0124,-8.54 3.2081,-14.928 1.5308,-8.1784 6.4962,-17.053 6.6032,-27.631 0.12444,-12.299 -2.3427,-30.425 -8.1696,-44.797 -0.76409,8.4185 -1.1697,16.047 -5.4056,30.037 -0.44033,1.4543 -0.60273,5.7254 -0.31128,9.5742 0.69076,9.1218 1.0341,17.856 -1.4966,25.881 -1.9223,6.0959 -2.9235,12.407 -4.8854,18.585 -3.6642,11.539 -9.7223,22.911 -14.648,34.711 -2.7207,6.5185 -4.5612,12.647 -6.8741,19.466 -1.8809,5.5451 -4.7648,11.415 -6.3211,16.808 -0.68538,2.3749 -0.76689,3.5064 -0.34805,5.3667 1.6599,7.3724 2.888,14.724 2.1004,22.292 -0.48006,4.6129 -2.8308,8.8891 -2.2868,13.377 1.1457,9.4524 1.2955,20.368 0.13039,23.4 -0.83442,2.1715 -2.8905,4.323 -4.7329,3.3456 -1.3822,-0.73326 -2.2563,-2.9992 -1.9825,-5.1119 0.41819,-3.2269 -0.58815,-8.1551 -0.53474,-11.5 0.02884,-1.8083 -1.4504,-6.5313 -2.2792,-6.1886 0.41994,15.577 -1.6504,29.826 -4.5499,33.15 -1.0575,1.2123 -3.8071,1.153 -4.9471,-0.10669 -0.93136,-1.0292 -0.07372,-5.0893 0.09742,-8.1989 0.42568,-7.7348 1.0581,-13.371 -0.51958,-20.113 -0.05692,2.4579 -1.3004,9.6101 -1.9137,12.009 -1.46,5.7109 -2.3573,9.8937 -2.7513,12.825 -0.46858,3.4862 -0.95325,6.4116 -2.7835,7.6734 -4.3479,2.9977 -6.2619,-2.3244 -6.0457,-4.8897 0.15012,-1.7382 0.60572,-5.5788 1.0634,-8.527 0.62084,-3.9993 0.76777,-7.984 0.73283,-12.011 -0.98707,3.5774 -1.9369,7.2611 -2.4398,10.863 -0.77674,5.5626 -2.481,8.6088 -5.1363,8.3041 -3.5954,-0.41255 -3.701,-4.4115 -3.4093,-6.3889 1.2463,-8.4484 1.6759,-17.044 3.178,-25.851 0.53804,-0.87057 -0.73119,-0.48103 -2.6291,0.8069 -2.0081,1.3627 -3.7491,1.6063 -5.3516,0.74869 -1.3554,-0.72541 -1.2571,-1.3213 0.77389,-4.6894 1.281,-2.1243 1.6275,-3.8294 2.1091,-6.1333 1.0911,-5.2199 3.0926,-11.502 5.3607,-15.857 3.8604,-7.4118 12.819,-12.997 14.066,-21.429 0.73094,-4.9448 0.88658,-9.7552 2.0079,-14.484 2.9254,-12.339 5.9973,-23.551 7.6518,-36.007 1.9821,-14.922 3.2876,-30.736 5.355,-45.004 2.0046,-13.834 14.291,-28.557 13.537,-41.911 -0.76408,-13.532 -2.5739,-32.583 1.2283,-43.666 0.57169,-1.5716 0.66169,-8.5063 -0.70094,-15.112 -1.5148,-7.3431 -1.4987,-19.469 0.03588,-27.055 1.2423,-7.3912 2.6914,-15.569 5.8548,-21.21 3.1625,-5.4976 9.3413,-7.4739 15.333,-10.269 9.4832,-4.5234 23.051,-7.9649 31.689,-13.021 7.0574,-4.3079 12.739,-5.3718 18.422,-9.2 0.79812,-0.53765 4.5205,-3.6661 5.6451,-5.8163 1.0536,-2.0144 1.0973,-2.6827 1.0072,-15.395 -0.10311,-14.556 -0.13018,-14.969 -1.2722,-19.422 -0.67029,-2.4815 -0.79321,-4.947 -0.8026,-7.4853 -2.7978,3.6365 -7.4286,2.6176 -7.6666,-1.0187 0,-0.5603 -0.20726,-1.4061 -0.46057,-1.8796 -0.85589,-2.6652 -0.99176,-5.1637 -1.4064,-8.0164 -0.52947,-3.5368 -0.51209,-4.7611 0.11102,-7.823 0.78491,-3.857 1.4953,-4.8535 3.274,-4.5924 l 1.3207,0.19384 c -1.4421,-6.4553 -2.2969,-13.385 -2.6106,-18.938 -0.16652,-3.082 -0.41161,-5.7798 -0.54464,-5.995 0.17962,-1.0211 1.0294,-2.4015 0.19843,-2.5815 -0.40955,-0.0887 -0.0152,-0.9719 1.0621,-2.3322 0.92573,-1.1688 0.95331,-1.423 1.0886,-2.7233 0.59837,-0.76334 1.4057,-0.86042 0.57884,-1.8826 0.95986,-0.0611 2.3554,0.47154 0.4553,-1.6648 0.0705,-0.351 0.87618,-0.31068 1.3326,-0.38369 -1.0126,-1.9524 -0.30184,-3.6309 0.50392,-4.6888 1.6598,-2.1791 5.1047,-4.848 7.7468,-5.2876 1.0759,-0.17238 2.6343,-0.96301 3.5525,-1.8023 0.8997,-0.82237 1.7127,-1.2647 1.8066,-0.98291 0.16443,0.4933 1.2188,-0.004 5.7576,-2.7166 1.9264,-1.1512 2.4722,-1.2168 9.4556,-1.1364 8.9649,0.10327 14.41,0.69623 17.057,1.8575 2.446,1.0731 2.5576,0.37297 1.7244,-0.63087 1.3306,-0.3944 3.0769,0.67155 4.4742,2.0568 4.0938,3.803 8.725,2.3731 9.3214,4.2961 -0.13441,1.3853 -3.0493,2.8602 1.0286,2.5668 2.3177,-0.16673 1.6876,1.7292 3.0171,2.1639 -1.152,3.1604 1.8615,-0.30777 5.0754,1.0211 -1.1545,0.64231 -4.9988,1.5858 -2.786,4.2167 0.84344,1.0028 0.43065,2.9898 -0.20039,4.2654 -0.66932,1.353 1.0148,4.0058 4.1392,2.4785 -1.0061,2.0266 -1.7934,2.3117 -1.4421,6.2894 0.0242,4.4626 -2.0719,20.811 -2.4366,24.523 3.4436,1.4707 2.1675,5.676 2.6664,9.4662 0.13363,0.98389 -0.082,3.1689 -0.47917,4.8556 -0.88327,3.1124 -0.77409,6.4664 -1.8277,9.5001 -0.54897,1.0258 -2.3134,1.6738 -3.8098,1.3992 -0.73786,-0.13539 -1.1133,0.61673 -2.039,4.0852 -0.68724,2.5748 -1.7938,5.1863 -2.8062,6.6226 l -1.6715,2.3714 0.30548,10.244 c 0.16801,5.6342 0.44607,11.164 0.6179,12.289 0.44331,2.901 2.4462,5.7445 6.0834,8.0994 11.83,7.6591 26.956,10.98 40.399,18.554 9.0412,5.0938 21.863,7.9088 24.676,17.192 4.4983,14.845 5.4382,29.985 2.9501,45.274 -1.753,10.772 -0.59303,20.955 0.0376,30.991 0.79436,12.641 -3.5142,25.027 -0.30317,36.033 2.595,8.8946 5.3352,17.758 8.1857,26.578 1.3865,4.2898 2.5071,15.854 3.2699,27.089 0.81707,12.035 0.95402,24.969 3.6231,36.52 2.7092,11.725 5.6697,27.504 7.3889,38.04 1.1507,7.0516 1.3165,8.0618 10.129,13.721 5.5878,3.5884 7.1746,5.5666 8.7567,9.3718 1.6915,4.0681 4.5737,7.8574 5.9819,11.737 0.74497,2.0526 2.1156,4.7505 3.0615,5.9897 1.9585,2.5658 2.166,3.9444 0.71107,4.7231 -1.7404,0.93142 -5.2308,-0.50191 -8.2065,-2.9147 -3.0721,-2.4909 -5.1885,-6.9763 -7.6698,-9.3448 -0.71082,0 -0.58274,15.578 0.14253,17.338 0.68921,1.6718 0.91418,22.679 0.26795,25.022 -1.0275,3.7248 -4.7596,5.2055 -6.5055,2.5812 -1.0063,-1.5125 -1.0601,-1.8266 -1.5702,-9.1631 -0.24432,-3.5139 -0.76045,-8.1321 -1.147,-10.263 -0.38653,-2.1306 -0.6107,-4.9723 -0.49819,-6.3147 0.13419,-1.601 0.0222,-2.3281 -0.32546,-2.1132 -0.68757,4.084 0.0338,7.2627 0.0849,11.791 0.0173,1.5323 -0.0909,10.594 -0.0854,16.076 0.005,5.1531 -0.53852,6.9238 -2.3105,7.5242 -2.7251,0.92348 -5.1488,-0.8426 -5.6139,-4.0908 -0.16791,-1.1726 -0.43614,-5.007 -0.59605,-8.5208 -0.47776,-10.498 -0.81995,-11.266 -1.032,-1.0222 -0.0677,3.2728 0.42125,8.7338 -1.0502,9.8757 -1.7269,1.3401 -4.173,0.78278 -5.3364,-1.3634 -1.1903,-2.1959 -1.1146,-5.0124 -1.2603,-7.0928 -0.41259,-5.8928 -1.4412,-12.495 -1.1125,-18.083 0.28897,-4.9134 0.70998,-6.8252 0.11105,-6.975 -0.71194,-0.178 -1.3733,6.265 -1.4742,14.362 -0.0757,6.076 -0.1922,6.9012 -1.0642,7.5389 -1.2706,0.92906 -3.577,0.91653 -4.518,-0.0245 -1.2598,-1.2598 -2.0472,-8.6655 -1.95,-18.303 0.0746,-7.3908 -1.2398,-14.836 -2.5241,-21.766 -1.4812,-7.992 1.4919,-14.892 2.0502,-22.661 0.37941,-5.2798 -2.899,-10.258 -4.8294,-15.751 -2.7283,-7.7639 -2.892,-16.9 -6.6474,-23.767 -11.174,-20.431 -18.46,-50.304 -20.274,-63.284 -0.24334,-1.7416 -0.59552,-12.949 0.36338,-17.681 0.75011,-3.702 0.59035,-6.1589 -0.008,-8.8119 -2.0209,-8.9576 -3.8964,-17.603 -3.4509,-25.764 -5.4109,13.854 -6.6251,28.432 -6.5799,42.197 0.0318,9.7019 2.6751,20.509 2.4979,28.111 -0.18185,7.801 2.1414,15.353 2.9213,22.233 1.0114,8.9229 3.2776,16.019 4.8255,25.044 4.0323,23.51 6.4221,45.93 10.492,71.3 1.404,8.7528 1.9575,47.343 0.68093,58 -1.6935,14.138 -6.9412,29.179 -5.3541,43.199 1.3008,11.492 1.5049,23.964 4.1923,37.567 3.0681,15.53 8.4158,30.518 7.4415,46.256 -1.4717,23.771 -2.2249,46.186 -2.9326,72.066 -0.18153,6.6391 -0.71333,19.549 0.87266,24.022 1.8289,5.1587 3.4732,10.932 3.2666,15.801 -0.17067,4.02183 0.14519,5.71033 1.6506,7.58363 1.7445,2.1708 3.5605,5.8746 3.7409,6.9111 0.4803,2.7593 4.1835,7.2427 6.0282,9.1867 4.0628,4.2816 11.425,10.191 14.161,14.476 1.6355,2.5616 2.0267,4.6278 1.2463,5.6055 -3.1165,3.9041 -7.6727,4.3636 -12.163,6.4654 -2.5552,1.1959 -4.0385,1.3125 -6.1479,0.4387 -1.2342,-0.5111 -1.7669,-0.4697 -3.1497,0.2454 -6.016,1.2364 -6.7627,1.4254 -10.814,0.7922 z" />
    </g>
    <g
       style="fill:#008000"
       id="layer1-7-0-4"
       transform="matrix(0.05343168,0,0,0.05343168,384.08779,978.72707)">
      <path
         style="fill:#008000"
         inkscape:connector-curvature="0"
         id="path3118-9-6"
         d="m 237.48,1048.2 c -3.5268,-0.5513 -3.7946,-3.6921 -5.3878,-5.4596 -4.4736,-1.3869 -5.7135,-3.6212 -6.4937,-11.702 -0.28766,-2.9795 -0.74054,-3.8086 -2.2516,-4.1219 -9.2027,-1.7813 -7.3647,-7.9024 -5.7775,-15.104 1.2197,-5.5343 -2.8881,-10.634 -3.983,-15.495 -1.1005,-4.8887 0.641,-9.8688 1.1155,-14.112 1.6285,-14.562 -4.4751,-45.463 -9.1579,-55.816 -2.9982,-6.6286 -5.6562,-13.3 -7.8281,-24.406 -2.8291,-14.466 -2.5464,-33.474 -2.786,-43.444 -0.15503,-6.3302 1.8642,-13.536 -0.95542,-19.167 -6.0015,-11.984 -10.312,-23.428 -11.841,-35.522 -1.3621,-10.775 -3.5556,-21.566 -6.1175,-31.944 -3.6048,-14.603 -9.1251,-31.163 -15.103,-46 -4.7564,-11.804 -7.1288,-26.176 -9.1117,-26.322 -5.0807,13.782 -8.9892,29.012 -13.585,42.548 -4.8248,14.209 -8.4777,29.151 -11.214,41.53 -2.8074,12.701 -1.7667,14.568 -4.2274,28.367 -2.2092,12.388 -10.012,22.822 -10.05,34.208 -0.0559,16.718 4.4973,32.819 1.9904,49.695 -3.4189,23.015 -11.222,45.78 -13.823,67.897 -0.91226,7.7576 -0.81367,11.333 1.2479,21.176 1.6039,7.6576 -4.9707,14.942 -2.6309,29.424 1.5486,9.5855 -4.7872,9.6394 -11.136,11.718 -0.94223,0.468 -3.9348,6.2813 -4.6828,9.0968 -0.69505,2.616 -2.5449,4.7376 -4.1399,4.7482 -1.5495,0.011 -2.1488,0.4573 -3.0122,2.2462 -1.2705,2.6328 -2.8859,3.3839 -8.4183,3.9146 -5.8898,0.565 -7.5293,0.3267 -8.7912,-1.2774 -0.91109,-1.1583 -0.85253,-1.0133 -2.6816,-0.2163 -5.6385,2.4567 -14.566,-3.346 -14.304,-9.6128 0.19162,-4.5944 4.6284,-7.5469 8.084,-10.113 3.3595,-2.4947 7.9097,-4.6822 10.57,-7.9434 2.2534,-2.7626 5.6428,-5.2584 6.9252,-9.021 0.74412,-2.1833 2.4428,-4.8211 4.8646,-7.4403 1.7259,-1.8666 1.7484,-1.9519 1.8901,-7.1556 0.10359,-3.8024 0.39531,-5.7625 1.0494,-7.0507 1.9601,-3.8608 1.5085,-15.071 0.8089,-24.027 -2.4375,-31.202 -10.255,-58.981 -8.7921,-89.421 0.68738,-14.302 2.703,-26.697 6.2857,-40.912 1.2093,-4.7981 1.9694,-7.1864 1.4616,-16.611 -0.34807,-6.4595 1.587,-12.744 1.3123,-19.053 -0.68154,-15.65 -4.3044,-31.701 -5.0899,-47.502 -0.05048,-15.729 -1.6677,-32.909 -0.06259,-49.212 1.5509,-15.753 4.0429,-32.648 6.1643,-55.455 1.0051,-10.806 4.313,-19.869 5.7036,-30.59 0.96537,-7.4424 1.2863,-11.754 3.0302,-19.288 1.5778,-6.8158 2.0124,-8.54 3.2081,-14.928 1.5308,-8.1784 6.4962,-17.053 6.6032,-27.631 0.12444,-12.299 -2.3427,-30.425 -8.1696,-44.797 -0.76409,8.4185 -1.1697,16.047 -5.4056,30.037 -0.44033,1.4543 -0.60273,5.7254 -0.31128,9.5742 0.69076,9.1218 1.0341,17.856 -1.4966,25.881 -1.9223,6.0959 -2.9235,12.407 -4.8854,18.585 -3.6642,11.539 -9.7223,22.911 -14.648,34.711 -2.7207,6.5185 -4.5612,12.647 -6.8741,19.466 -1.8809,5.5451 -4.7648,11.415 -6.3211,16.808 -0.68538,2.3749 -0.76689,3.5064 -0.34805,5.3667 1.6599,7.3724 2.888,14.724 2.1004,22.292 -0.48006,4.6129 -2.8308,8.8891 -2.2868,13.377 1.1457,9.4524 1.2955,20.368 0.13039,23.4 -0.83442,2.1715 -2.8905,4.323 -4.7329,3.3456 -1.3822,-0.73326 -2.2563,-2.9992 -1.9825,-5.1119 0.41819,-3.2269 -0.58815,-8.1551 -0.53474,-11.5 0.02884,-1.8083 -1.4504,-6.5313 -2.2792,-6.1886 0.41994,15.577 -1.6504,29.826 -4.5499,33.15 -1.0575,1.2123 -3.8071,1.153 -4.9471,-0.10669 -0.93136,-1.0292 -0.07372,-5.0893 0.09742,-8.1989 0.42568,-7.7348 1.0581,-13.371 -0.51958,-20.113 -0.05692,2.4579 -1.3004,9.6101 -1.9137,12.009 -1.46,5.7109 -2.3573,9.8937 -2.7513,12.825 -0.46858,3.4862 -0.95325,6.4116 -2.7835,7.6734 -4.3479,2.9977 -6.2619,-2.3244 -6.0457,-4.8897 0.15012,-1.7382 0.60572,-5.5788 1.0634,-8.527 0.62084,-3.9993 0.76777,-7.984 0.73283,-12.011 -0.98707,3.5774 -1.9369,7.2611 -2.4398,10.863 -0.77674,5.5626 -2.481,8.6088 -5.1363,8.3041 -3.5954,-0.41255 -3.701,-4.4115 -3.4093,-6.3889 1.2463,-8.4484 1.6759,-17.044 3.178,-25.851 0.53804,-0.87057 -0.73119,-0.48103 -2.6291,0.8069 -2.0081,1.3627 -3.7491,1.6063 -5.3516,0.74869 -1.3554,-0.72541 -1.2571,-1.3213 0.77389,-4.6894 1.281,-2.1243 1.6275,-3.8294 2.1091,-6.1333 1.0911,-5.2199 3.0926,-11.502 5.3607,-15.857 3.8604,-7.4118 12.819,-12.997 14.066,-21.429 0.73094,-4.9448 0.88658,-9.7552 2.0079,-14.484 2.9254,-12.339 5.9973,-23.551 7.6518,-36.007 1.9821,-14.922 3.2876,-30.736 5.355,-45.004 2.0046,-13.834 14.291,-28.557 13.537,-41.911 -0.76408,-13.532 -2.5739,-32.583 1.2283,-43.666 0.57169,-1.5716 0.66169,-8.5063 -0.70094,-15.112 -1.5148,-7.3431 -1.4987,-19.469 0.03588,-27.055 1.2423,-7.3912 2.6914,-15.569 5.8548,-21.21 3.1625,-5.4976 9.3413,-7.4739 15.333,-10.269 9.4832,-4.5234 23.051,-7.9649 31.689,-13.021 7.0574,-4.3079 12.739,-5.3718 18.422,-9.2 0.79812,-0.53765 4.5205,-3.6661 5.6451,-5.8163 1.0536,-2.0144 1.0973,-2.6827 1.0072,-15.395 -0.10311,-14.556 -0.13018,-14.969 -1.2722,-19.422 -0.67029,-2.4815 -0.79321,-4.947 -0.8026,-7.4853 -2.7978,3.6365 -7.4286,2.6176 -7.6666,-1.0187 0,-0.5603 -0.20726,-1.4061 -0.46057,-1.8796 -0.85589,-2.6652 -0.99176,-5.1637 -1.4064,-8.0164 -0.52947,-3.5368 -0.51209,-4.7611 0.11102,-7.823 0.78491,-3.857 1.4953,-4.8535 3.274,-4.5924 l 1.3207,0.19384 c -1.4421,-6.4553 -2.2969,-13.385 -2.6106,-18.938 -0.16652,-3.082 -0.41161,-5.7798 -0.54464,-5.995 0.17962,-1.0211 1.0294,-2.4015 0.19843,-2.5815 -0.40955,-0.0887 -0.0152,-0.9719 1.0621,-2.3322 0.92573,-1.1688 0.95331,-1.423 1.0886,-2.7233 0.59837,-0.76334 1.4057,-0.86042 0.57884,-1.8826 0.95986,-0.0611 2.3554,0.47154 0.4553,-1.6648 0.0705,-0.351 0.87618,-0.31068 1.3326,-0.38369 -1.0126,-1.9524 -0.30184,-3.6309 0.50392,-4.6888 1.6598,-2.1791 5.1047,-4.848 7.7468,-5.2876 1.0759,-0.17238 2.6343,-0.96301 3.5525,-1.8023 0.8997,-0.82237 1.7127,-1.2647 1.8066,-0.98291 0.16443,0.4933 1.2188,-0.004 5.7576,-2.7166 1.9264,-1.1512 2.4722,-1.2168 9.4556,-1.1364 8.9649,0.10327 14.41,0.69623 17.057,1.8575 2.446,1.0731 2.5576,0.37297 1.7244,-0.63087 1.3306,-0.3944 3.0769,0.67155 4.4742,2.0568 4.0938,3.803 8.725,2.3731 9.3214,4.2961 -0.13441,1.3853 -3.0493,2.8602 1.0286,2.5668 2.3177,-0.16673 1.6876,1.7292 3.0171,2.1639 -1.152,3.1604 1.8615,-0.30777 5.0754,1.0211 -1.1545,0.64231 -4.9988,1.5858 -2.786,4.2167 0.84344,1.0028 0.43065,2.9898 -0.20039,4.2654 -0.66932,1.353 1.0148,4.0058 4.1392,2.4785 -1.0061,2.0266 -1.7934,2.3117 -1.4421,6.2894 0.0242,4.4626 -2.0719,20.811 -2.4366,24.523 3.4436,1.4707 2.1675,5.676 2.6664,9.4662 0.13363,0.98389 -0.082,3.1689 -0.47917,4.8556 -0.88327,3.1124 -0.77409,6.4664 -1.8277,9.5001 -0.54897,1.0258 -2.3134,1.6738 -3.8098,1.3992 -0.73786,-0.13539 -1.1133,0.61673 -2.039,4.0852 -0.68724,2.5748 -1.7938,5.1863 -2.8062,6.6226 l -1.6715,2.3714 0.30548,10.244 c 0.16801,5.6342 0.44607,11.164 0.6179,12.289 0.44331,2.901 2.4462,5.7445 6.0834,8.0994 11.83,7.6591 26.956,10.98 40.399,18.554 9.0412,5.0938 21.863,7.9088 24.676,17.192 4.4983,14.845 5.4382,29.985 2.9501,45.274 -1.753,10.772 -0.59303,20.955 0.0376,30.991 0.79436,12.641 -3.5142,25.027 -0.30317,36.033 2.595,8.8946 5.3352,17.758 8.1857,26.578 1.3865,4.2898 2.5071,15.854 3.2699,27.089 0.81707,12.035 0.95402,24.969 3.6231,36.52 2.7092,11.725 5.6697,27.504 7.3889,38.04 1.1507,7.0516 1.3165,8.0618 10.129,13.721 5.5878,3.5884 7.1746,5.5666 8.7567,9.3718 1.6915,4.0681 4.5737,7.8574 5.9819,11.737 0.74497,2.0526 2.1156,4.7505 3.0615,5.9897 1.9585,2.5658 2.166,3.9444 0.71107,4.7231 -1.7404,0.93142 -5.2308,-0.50191 -8.2065,-2.9147 -3.0721,-2.4909 -5.1885,-6.9763 -7.6698,-9.3448 -0.71082,0 -0.58274,15.578 0.14253,17.338 0.68921,1.6718 0.91418,22.679 0.26795,25.022 -1.0275,3.7248 -4.7596,5.2055 -6.5055,2.5812 -1.0063,-1.5125 -1.0601,-1.8266 -1.5702,-9.1631 -0.24432,-3.5139 -0.76045,-8.1321 -1.147,-10.263 -0.38653,-2.1306 -0.6107,-4.9723 -0.49819,-6.3147 0.13419,-1.601 0.0222,-2.3281 -0.32546,-2.1132 -0.68757,4.084 0.0338,7.2627 0.0849,11.791 0.0173,1.5323 -0.0909,10.594 -0.0854,16.076 0.005,5.1531 -0.53852,6.9238 -2.3105,7.5242 -2.7251,0.92348 -5.1488,-0.8426 -5.6139,-4.0908 -0.16791,-1.1726 -0.43614,-5.007 -0.59605,-8.5208 -0.47776,-10.498 -0.81995,-11.266 -1.032,-1.0222 -0.0677,3.2728 0.42125,8.7338 -1.0502,9.8757 -1.7269,1.3401 -4.173,0.78278 -5.3364,-1.3634 -1.1903,-2.1959 -1.1146,-5.0124 -1.2603,-7.0928 -0.41259,-5.8928 -1.4412,-12.495 -1.1125,-18.083 0.28897,-4.9134 0.70998,-6.8252 0.11105,-6.975 -0.71194,-0.178 -1.3733,6.265 -1.4742,14.362 -0.0757,6.076 -0.1922,6.9012 -1.0642,7.5389 -1.2706,0.92906 -3.577,0.91653 -4.518,-0.0245 -1.2598,-1.2598 -2.0472,-8.6655 -1.95,-18.303 0.0746,-7.3908 -1.2398,-14.836 -2.5241,-21.766 -1.4812,-7.992 1.4919,-14.892 2.0502,-22.661 0.37941,-5.2798 -2.899,-10.258 -4.8294,-15.751 -2.7283,-7.7639 -2.892,-16.9 -6.6474,-23.767 -11.174,-20.431 -18.46,-50.304 -20.274,-63.284 -0.24334,-1.7416 -0.59552,-12.949 0.36338,-17.681 0.75011,-3.702 0.59035,-6.1589 -0.008,-8.8119 -2.0209,-8.9576 -3.8964,-17.603 -3.4509,-25.764 -5.4109,13.854 -6.6251,28.432 -6.5799,42.197 0.0318,9.7019 2.6751,20.509 2.4979,28.111 -0.18185,7.801 2.1414,15.353 2.9213,22.233 1.0114,8.9229 3.2776,16.019 4.8255,25.044 4.0323,23.51 6.4221,45.93 10.492,71.3 1.404,8.7528 1.9575,47.343 0.68093,58 -1.6935,14.138 -6.9412,29.179 -5.3541,43.199 1.3008,11.492 1.5049,23.964 4.1923,37.567 3.0681,15.53 8.4158,30.518 7.4415,46.256 -1.4717,23.771 -2.2249,46.186 -2.9326,72.066 -0.18153,6.6391 -0.71333,19.549 0.87266,24.022 1.8289,5.1587 3.4732,10.932 3.2666,15.801 -0.17067,4.02183 0.14519,5.71033 1.6506,7.58363 1.7445,2.1708 3.5605,5.8746 3.7409,6.9111 0.4803,2.7593 4.1835,7.2427 6.0282,9.1867 4.0628,4.2816 11.425,10.191 14.161,14.476 1.6355,2.5616 2.0267,4.6278 1.2463,5.6055 -3.1165,3.9041 -7.6727,4.3636 -12.163,6.4654 -2.5552,1.1959 -4.0385,1.3125 -6.1479,0.4387 -1.2342,-0.5111 -1.7669,-0.4697 -3.1497,0.2454 -6.016,1.2364 -6.7627,1.4254 -10.814,0.7922 z" />
    </g>
    <g
       style="fill:#008000"
       id="layer1-7-0-4-7"
       transform="matrix(0.05343168,0,0,0.05343168,405.4553,963.06895)">
      <path
         style="fill:#008000"
         inkscape:connector-curvature="0"
         id="path3118-9-6-8"
         d="m 237.48,1048.2 c -3.5268,-0.5513 -3.7946,-3.6921 -5.3878,-5.4596 -4.4736,-1.3869 -5.7135,-3.6212 -6.4937,-11.702 -0.28766,-2.9795 -0.74054,-3.8086 -2.2516,-4.1219 -9.2027,-1.7813 -7.3647,-7.9024 -5.7775,-15.104 1.2197,-5.5343 -2.8881,-10.634 -3.983,-15.495 -1.1005,-4.8887 0.641,-9.8688 1.1155,-14.112 1.6285,-14.562 -4.4751,-45.463 -9.1579,-55.816 -2.9982,-6.6286 -5.6562,-13.3 -7.8281,-24.406 -2.8291,-14.466 -2.5464,-33.474 -2.786,-43.444 -0.15503,-6.3302 1.8642,-13.536 -0.95542,-19.167 -6.0015,-11.984 -10.312,-23.428 -11.841,-35.522 -1.3621,-10.775 -3.5556,-21.566 -6.1175,-31.944 -3.6048,-14.603 -9.1251,-31.163 -15.103,-46 -4.7564,-11.804 -7.1288,-26.176 -9.1117,-26.322 -5.0807,13.782 -8.9892,29.012 -13.585,42.548 -4.8248,14.209 -8.4777,29.151 -11.214,41.53 -2.8074,12.701 -1.7667,14.568 -4.2274,28.367 -2.2092,12.388 -10.012,22.822 -10.05,34.208 -0.0559,16.718 4.4973,32.819 1.9904,49.695 -3.4189,23.015 -11.222,45.78 -13.823,67.897 -0.91226,7.7576 -0.81367,11.333 1.2479,21.176 1.6039,7.6576 -4.9707,14.942 -2.6309,29.424 1.5486,9.5855 -4.7872,9.6394 -11.136,11.718 -0.94223,0.468 -3.9348,6.2813 -4.6828,9.0968 -0.69505,2.616 -2.5449,4.7376 -4.1399,4.7482 -1.5495,0.011 -2.1488,0.4573 -3.0122,2.2462 -1.2705,2.6328 -2.8859,3.3839 -8.4183,3.9146 -5.8898,0.565 -7.5293,0.3267 -8.7912,-1.2774 -0.91109,-1.1583 -0.85253,-1.0133 -2.6816,-0.2163 -5.6385,2.4567 -14.566,-3.346 -14.304,-9.6128 0.19162,-4.5944 4.6284,-7.5469 8.084,-10.113 3.3595,-2.4947 7.9097,-4.6822 10.57,-7.9434 2.2534,-2.7626 5.6428,-5.2584 6.9252,-9.021 0.74412,-2.1833 2.4428,-4.8211 4.8646,-7.4403 1.7259,-1.8666 1.7484,-1.9519 1.8901,-7.1556 0.10359,-3.8024 0.39531,-5.7625 1.0494,-7.0507 1.9601,-3.8608 1.5085,-15.071 0.8089,-24.027 -2.4375,-31.202 -10.255,-58.981 -8.7921,-89.421 0.68738,-14.302 2.703,-26.697 6.2857,-40.912 1.2093,-4.7981 1.9694,-7.1864 1.4616,-16.611 -0.34807,-6.4595 1.587,-12.744 1.3123,-19.053 -0.68154,-15.65 -4.3044,-31.701 -5.0899,-47.502 -0.05048,-15.729 -1.6677,-32.909 -0.06259,-49.212 1.5509,-15.753 4.0429,-32.648 6.1643,-55.455 1.0051,-10.806 4.313,-19.869 5.7036,-30.59 0.96537,-7.4424 1.2863,-11.754 3.0302,-19.288 1.5778,-6.8158 2.0124,-8.54 3.2081,-14.928 1.5308,-8.1784 6.4962,-17.053 6.6032,-27.631 0.12444,-12.299 -2.3427,-30.425 -8.1696,-44.797 -0.76409,8.4185 -1.1697,16.047 -5.4056,30.037 -0.44033,1.4543 -0.60273,5.7254 -0.31128,9.5742 0.69076,9.1218 1.0341,17.856 -1.4966,25.881 -1.9223,6.0959 -2.9235,12.407 -4.8854,18.585 -3.6642,11.539 -9.7223,22.911 -14.648,34.711 -2.7207,6.5185 -4.5612,12.647 -6.8741,19.466 -1.8809,5.5451 -4.7648,11.415 -6.3211,16.808 -0.68538,2.3749 -0.76689,3.5064 -0.34805,5.3667 1.6599,7.3724 2.888,14.724 2.1004,22.292 -0.48006,4.6129 -2.8308,8.8891 -2.2868,13.377 1.1457,9.4524 1.2955,20.368 0.13039,23.4 -0.83442,2.1715 -2.8905,4.323 -4.7329,3.3456 -1.3822,-0.73326 -2.2563,-2.9992 -1.9825,-5.1119 0.41819,-3.2269 -0.58815,-8.1551 -0.53474,-11.5 0.02884,-1.8083 -1.4504,-6.5313 -2.2792,-6.1886 0.41994,15.577 -1.6504,29.826 -4.5499,33.15 -1.0575,1.2123 -3.8071,1.153 -4.9471,-0.10669 -0.93136,-1.0292 -0.07372,-5.0893 0.09742,-8.1989 0.42568,-7.7348 1.0581,-13.371 -0.51958,-20.113 -0.05692,2.4579 -1.3004,9.6101 -1.9137,12.009 -1.46,5.7109 -2.3573,9.8937 -2.7513,12.825 -0.46858,3.4862 -0.95325,6.4116 -2.7835,7.6734 -4.3479,2.9977 -6.2619,-2.3244 -6.0457,-4.8897 0.15012,-1.7382 0.60572,-5.5788 1.0634,-8.527 0.62084,-3.9993 0.76777,-7.984 0.73283,-12.011 -0.98707,3.5774 -1.9369,7.2611 -2.4398,10.863 -0.77674,5.5626 -2.481,8.6088 -5.1363,8.3041 -3.5954,-0.41255 -3.701,-4.4115 -3.4093,-6.3889 1.2463,-8.4484 1.6759,-17.044 3.178,-25.851 0.53804,-0.87057 -0.73119,-0.48103 -2.6291,0.8069 -2.0081,1.3627 -3.7491,1.6063 -5.3516,0.74869 -1.3554,-0.72541 -1.2571,-1.3213 0.77389,-4.6894 1.281,-2.1243 1.6275,-3.8294 2.1091,-6.1333 1.0911,-5.2199 3.0926,-11.502 5.3607,-15.857 3.8604,-7.4118 12.819,-12.997 14.066,-21.429 0.73094,-4.9448 0.88658,-9.7552 2.0079,-14.484 2.9254,-12.339 5.9973,-23.551 7.6518,-36.007 1.9821,-14.922 3.2876,-30.736 5.355,-45.004 2.0046,-13.834 14.291,-28.557 13.537,-41.911 -0.76408,-13.532 -2.5739,-32.583 1.2283,-43.666 0.57169,-1.5716 0.66169,-8.5063 -0.70094,-15.112 -1.5148,-7.3431 -1.4987,-19.469 0.03588,-27.055 1.2423,-7.3912 2.6914,-15.569 5.8548,-21.21 3.1625,-5.4976 9.3413,-7.4739 15.333,-10.269 9.4832,-4.5234 23.051,-7.9649 31.689,-13.021 7.0574,-4.3079 12.739,-5.3718 18.422,-9.2 0.79812,-0.53765 4.5205,-3.6661 5.6451,-5.8163 1.0536,-2.0144 1.0973,-2.6827 1.0072,-15.395 -0.10311,-14.556 -0.13018,-14.969 -1.2722,-19.422 -0.67029,-2.4815 -0.79321,-4.947 -0.8026,-7.4853 -2.7978,3.6365 -7.4286,2.6176 -7.6666,-1.0187 0,-0.5603 -0.20726,-1.4061 -0.46057,-1.8796 -0.85589,-2.6652 -0.99176,-5.1637 -1.4064,-8.0164 -0.52947,-3.5368 -0.51209,-4.7611 0.11102,-7.823 0.78491,-3.857 1.4953,-4.8535 3.274,-4.5924 l 1.3207,0.19384 c -1.4421,-6.4553 -2.2969,-13.385 -2.6106,-18.938 -0.16652,-3.082 -0.41161,-5.7798 -0.54464,-5.995 0.17962,-1.0211 1.0294,-2.4015 0.19843,-2.5815 -0.40955,-0.0887 -0.0152,-0.9719 1.0621,-2.3322 0.92573,-1.1688 0.95331,-1.423 1.0886,-2.7233 0.59837,-0.76334 1.4057,-0.86042 0.57884,-1.8826 0.95986,-0.0611 2.3554,0.47154 0.4553,-1.6648 0.0705,-0.351 0.87618,-0.31068 1.3326,-0.38369 -1.0126,-1.9524 -0.30184,-3.6309 0.50392,-4.6888 1.6598,-2.1791 5.1047,-4.848 7.7468,-5.2876 1.0759,-0.17238 2.6343,-0.96301 3.5525,-1.8023 0.8997,-0.82237 1.7127,-1.2647 1.8066,-0.98291 0.16443,0.4933 1.2188,-0.004 5.7576,-2.7166 1.9264,-1.1512 2.4722,-1.2168 9.4556,-1.1364 8.9649,0.10327 14.41,0.69623 17.057,1.8575 2.446,1.0731 2.5576,0.37297 1.7244,-0.63087 1.3306,-0.3944 3.0769,0.67155 4.4742,2.0568 4.0938,3.803 8.725,2.3731 9.3214,4.2961 -0.13441,1.3853 -3.0493,2.8602 1.0286,2.5668 2.3177,-0.16673 1.6876,1.7292 3.0171,2.1639 -1.152,3.1604 1.8615,-0.30777 5.0754,1.0211 -1.1545,0.64231 -4.9988,1.5858 -2.786,4.2167 0.84344,1.0028 0.43065,2.9898 -0.20039,4.2654 -0.66932,1.353 1.0148,4.0058 4.1392,2.4785 -1.0061,2.0266 -1.7934,2.3117 -1.4421,6.2894 0.0242,4.4626 -2.0719,20.811 -2.4366,24.523 3.4436,1.4707 2.1675,5.676 2.6664,9.4662 0.13363,0.98389 -0.082,3.1689 -0.47917,4.8556 -0.88327,3.1124 -0.77409,6.4664 -1.8277,9.5001 -0.54897,1.0258 -2.3134,1.6738 -3.8098,1.3992 -0.73786,-0.13539 -1.1133,0.61673 -2.039,4.0852 -0.68724,2.5748 -1.7938,5.1863 -2.8062,6.6226 l -1.6715,2.3714 0.30548,10.244 c 0.16801,5.6342 0.44607,11.164 0.6179,12.289 0.44331,2.901 2.4462,5.7445 6.0834,8.0994 11.83,7.6591 26.956,10.98 40.399,18.554 9.0412,5.0938 21.863,7.9088 24.676,17.192 4.4983,14.845 5.4382,29.985 2.9501,45.274 -1.753,10.772 -0.59303,20.955 0.0376,30.991 0.79436,12.641 -3.5142,25.027 -0.30317,36.033 2.595,8.8946 5.3352,17.758 8.1857,26.578 1.3865,4.2898 2.5071,15.854 3.2699,27.089 0.81707,12.035 0.95402,24.969 3.6231,36.52 2.7092,11.725 5.6697,27.504 7.3889,38.04 1.1507,7.0516 1.3165,8.0618 10.129,13.721 5.5878,3.5884 7.1746,5.5666 8.7567,9.3718 1.6915,4.0681 4.5737,7.8574 5.9819,11.737 0.74497,2.0526 2.1156,4.7505 3.0615,5.9897 1.9585,2.5658 2.166,3.9444 0.71107,4.7231 -1.7404,0.93142 -5.2308,-0.50191 -8.2065,-2.9147 -3.0721,-2.4909 -5.1885,-6.9763 -7.6698,-9.3448 -0.71082,0 -0.58274,15.578 0.14253,17.338 0.68921,1.6718 0.91418,22.679 0.26795,25.022 -1.0275,3.7248 -4.7596,5.2055 -6.5055,2.5812 -1.0063,-1.5125 -1.0601,-1.8266 -1.5702,-9.1631 -0.24432,-3.5139 -0.76045,-8.1321 -1.147,-10.263 -0.38653,-2.1306 -0.6107,-4.9723 -0.49819,-6.3147 0.13419,-1.601 0.0222,-2.3281 -0.32546,-2.1132 -0.68757,4.084 0.0338,7.2627 0.0849,11.791 0.0173,1.5323 -0.0909,10.594 -0.0854,16.076 0.005,5.1531 -0.53852,6.9238 -2.3105,7.5242 -2.7251,0.92348 -5.1488,-0.8426 -5.6139,-4.0908 -0.16791,-1.1726 -0.43614,-5.007 -0.59605,-8.5208 -0.47776,-10.498 -0.81995,-11.266 -1.032,-1.0222 -0.0677,3.2728 0.42125,8.7338 -1.0502,9.8757 -1.7269,1.3401 -4.173,0.78278 -5.3364,-1.3634 -1.1903,-2.1959 -1.1146,-5.0124 -1.2603,-7.0928 -0.41259,-5.8928 -1.4412,-12.495 -1.1125,-18.083 0.28897,-4.9134 0.70998,-6.8252 0.11105,-6.975 -0.71194,-0.178 -1.3733,6.265 -1.4742,14.362 -0.0757,6.076 -0.1922,6.9012 -1.0642,7.5389 -1.2706,0.92906 -3.577,0.91653 -4.518,-0.0245 -1.2598,-1.2598 -2.0472,-8.6655 -1.95,-18.303 0.0746,-7.3908 -1.2398,-14.836 -2.5241,-21.766 -1.4812,-7.992 1.4919,-14.892 2.0502,-22.661 0.37941,-5.2798 -2.899,-10.258 -4.8294,-15.751 -2.7283,-7.7639 -2.892,-16.9 -6.6474,-23.767 -11.174,-20.431 -18.46,-50.304 -20.274,-63.284 -0.24334,-1.7416 -0.59552,-12.949 0.36338,-17.681 0.75011,-3.702 0.59035,-6.1589 -0.008,-8.8119 -2.0209,-8.9576 -3.8964,-17.603 -3.4509,-25.764 -5.4109,13.854 -6.6251,28.432 -6.5799,42.197 0.0318,9.7019 2.6751,20.509 2.4979,28.111 -0.18185,7.801 2.1414,15.353 2.9213,22.233 1.0114,8.9229 3.2776,16.019 4.8255,25.044 4.0323,23.51 6.4221,45.93 10.492,71.3 1.404,8.7528 1.9575,47.343 0.68093,58 -1.6935,14.138 -6.9412,29.179 -5.3541,43.199 1.3008,11.492 1.5049,23.964 4.1923,37.567 3.0681,15.53 8.4158,30.518 7.4415,46.256 -1.4717,23.771 -2.2249,46.186 -2.9326,72.066 -0.18153,6.6391 -0.71333,19.549 0.87266,24.022 1.8289,5.1587 3.4732,10.932 3.2666,15.801 -0.17067,4.02183 0.14519,5.71033 1.6506,7.58363 1.7445,2.1708 3.5605,5.8746 3.7409,6.9111 0.4803,2.7593 4.1835,7.2427 6.0282,9.1867 4.0628,4.2816 11.425,10.191 14.161,14.476 1.6355,2.5616 2.0267,4.6278 1.2463,5.6055 -3.1165,3.9041 -7.6727,4.3636 -12.163,6.4654 -2.5552,1.1959 -4.0385,1.3125 -6.1479,0.4387 -1.2342,-0.5111 -1.7669,-0.4697 -3.1497,0.2454 -6.016,1.2364 -6.7627,1.4254 -10.814,0.7922 z" />
    </g>
    <path
       inkscape:connector-curvature="0"
       id="path4318-9"
       d="m 200.1688,951.95227 -18.18278,0.14638"
       style="fill:none;fill-rule:evenodd;stroke:#000000;stroke-width:1.0629921;stroke-linecap:butt;stroke-linejoin:miter;stroke-miterlimit:3;stroke-dasharray:none;stroke-opacity:1;marker-start:url(#marker5231-1)" />
    <path
       inkscape:connector-curvature="0"
       id="path4318-9-3"
       d="m 348.912,951.69547 -18.18278,0.14638"
       style="fill:none;fill-rule:evenodd;stroke:#000000;stroke-width:1.0629921;stroke-linecap:butt;stroke-linejoin:miter;stroke-miterlimit:3;stroke-dasharray:none;stroke-opacity:1;marker-start:url(#marker5231-1-5)" />
    <path
       inkscape:connector-curvature="0"
       id="path4318-9-3-6"
       d="m 389.97151,985.72582 0.24943,-18.18166"
       style="fill:none;fill-rule:evenodd;stroke:#000000;stroke-width:1.0629921;stroke-linecap:butt;stroke-linejoin:miter;stroke-miterlimit:3;stroke-dasharray:none;stroke-opacity:1;marker-start:url(#marker5231-1-5-1)" />
    <path
       inkscape:transform-center-y="5.3055946"
       inkscape:transform-center-x="4.1342237"
       inkscape:connector-curvature="0"
       id="path4318-2-8"
       d="m 134.10966,954.35264 -18.03789,17.83629"
       style="fill:none;fill-rule:evenodd;stroke:#da1717;stroke-width:0.93843907;stroke-linecap:butt;stroke-linejoin:miter;stroke-miterlimit:3;stroke-dasharray:none;stroke-opacity:1;marker-start:url(#Arrow2Mstart-9);marker-end:url(#Arrow2Mend-5)" />
  </g>
</svg>
